<svg xmlns="http://www.w3.org/2000/svg" class="icon" style="width: 1em; height: 1em;vertical-align: middle;fill: currentColor;overflow: hidden;" viewBox="0 0 1024 1024" p-id="1795" version="1.1"><path d="M 460.8 486.4 L 486.4 486.4 L 486.4 460.8 L 486.4 243.2 C 486.4 108.884 377.516 0 243.2 0 C 108.884 0 0 108.884 0 243.2 C 0 377.516 108.884 486.4 243.2 486.4 L 460.8 486.4 Z M 51.2 243.2 C 51.2 137.161 137.161 51.2 243.2 51.2 C 349.239 51.2 435.2 137.161 435.2 243.2 L 435.2 460.8 L 460.8 435.2 L 243.2 435.2 C 137.161 435.2 51.2 349.239 51.2 243.2 Z M 460.8 588.8 L 435.2 563.2 L 435.2 780.8 C 435.2 886.839 349.239 972.8 243.2 972.8 C 137.161 972.8 51.2 886.839 51.2 780.8 C 51.2 674.761 137.161 588.8 243.2 588.8 L 460.8 588.8 Z M 0 780.8 C 0 915.116 108.884 1024 243.2 1024 C 377.516 1024 486.4 915.116 486.4 780.8 L 486.4 563.2 L 486.4 537.6 L 460.8 537.6 L 243.2 537.6 C 108.884 537.6 0 646.484 0 780.8 Z M 563.2 435.2 L 588.8 460.8 L 588.8 243.2 C 588.8 137.161 674.761 51.2 780.8 51.2 C 886.839 51.2 972.8 137.161 972.8 243.2 C 972.8 349.239 886.839 435.2 780.8 435.2 L 563.2 435.2 Z M 1024 243.2 C 1024 108.884 915.116 0 780.8 0 C 646.484 0 537.6 108.884 537.6 243.2 L 537.6 460.8 L 537.6 486.4 L 563.2 486.4 L 780.8 486.4 C 915.116 486.4 1024 377.516 1024 243.2 Z M 1024 780.8 C 1024 646.484 915.116 537.6 780.8 537.6 L 563.2 537.6 L 537.6 537.6 L 537.6 563.2 L 537.6 780.8 C 537.6 915.116 646.484 1024 780.8 1024 C 818.513 1024 855.051 1015.39 888.179 999.065 C 900.861 992.815 906.076 977.468 899.826 964.786 C 893.576 952.104 878.229 946.889 865.547 953.139 C 839.42 966.014 810.621 972.8 780.8 972.8 C 674.761 972.8 588.8 886.839 588.8 780.8 L 588.8 563.2 L 563.2 588.8 L 780.8 588.8 C 886.839 588.8 972.8 674.761 972.8 780.8 C 972.8 799.47 970.143 817.756 964.968 835.279 C 960.964 848.839 968.71 863.077 982.27 867.081 C 995.83 871.085 1010.07 863.339 1014.07 849.779 C 1020.63 827.56 1024 804.391 1024 780.8 Z" p-id="1796" /></svg>